<mxfile host="Electron" agent="Mozilla/5.0 (Windows NT 10.0; Win64; x64) AppleWebKit/537.36 (KHTML, like Gecko) draw.io/24.7.17 Chrome/128.0.6613.36 Electron/32.0.1 Safari/537.36" version="24.7.17">
  <diagram name="第 1 页" id="KVKXcA2v8e-MYIYoXiWe">
    <mxGraphModel dx="2161" dy="1577" grid="1" gridSize="10" guides="1" tooltips="1" connect="1" arrows="1" fold="1" page="0" pageScale="1" pageWidth="827" pageHeight="1169" math="0" shadow="0">
      <root>
        <mxCell id="0" />
        <mxCell id="1" parent="0" />
        <mxCell id="J6pw8MApclt_jU-j7pKg-1" value="" style="group" parent="1" vertex="1" connectable="0">
          <mxGeometry x="-120" y="-220" width="2369" height="765.02" as="geometry" />
        </mxCell>
        <mxCell id="Nktsm34Fh5tqj6Ti2t0z-151" value="" style="endArrow=none;html=1;rounded=0;exitX=0.75;exitY=0;exitDx=0;exitDy=0;dashed=1;strokeWidth=3;" parent="J6pw8MApclt_jU-j7pKg-1" edge="1">
          <mxGeometry width="50" height="50" relative="1" as="geometry">
            <mxPoint x="0.24999999999954525" y="765.0200000000001" as="sourcePoint" />
            <mxPoint as="targetPoint" />
          </mxGeometry>
        </mxCell>
        <mxCell id="Nktsm34Fh5tqj6Ti2t0z-70" value="" style="endArrow=none;html=1;rounded=0;exitX=0.75;exitY=0;exitDx=0;exitDy=0;dashed=1;strokeWidth=3;" parent="J6pw8MApclt_jU-j7pKg-1" edge="1">
          <mxGeometry width="50" height="50" relative="1" as="geometry">
            <mxPoint x="1216.2499999999998" y="731.922610955225" as="sourcePoint" />
            <mxPoint x="1216.0000000000002" y="8.25033538918935" as="targetPoint" />
          </mxGeometry>
        </mxCell>
        <mxCell id="Nktsm34Fh5tqj6Ti2t0z-71" value="" style="endArrow=none;html=1;rounded=0;exitX=0.75;exitY=0;exitDx=0;exitDy=0;dashed=1;strokeWidth=3;" parent="J6pw8MApclt_jU-j7pKg-1" edge="1">
          <mxGeometry width="50" height="50" relative="1" as="geometry">
            <mxPoint x="1060.3399999999997" y="727.2081335899741" as="sourcePoint" />
            <mxPoint x="1060.0900000000001" y="3.5358580239382733" as="targetPoint" />
          </mxGeometry>
        </mxCell>
        <mxCell id="Nktsm34Fh5tqj6Ti2t0z-72" value="" style="endArrow=none;html=1;rounded=0;exitX=0.75;exitY=0;exitDx=0;exitDy=0;dashed=1;strokeWidth=3;" parent="J6pw8MApclt_jU-j7pKg-1" edge="1">
          <mxGeometry width="50" height="50" relative="1" as="geometry">
            <mxPoint x="905.8399999999997" y="727.2081335899741" as="sourcePoint" />
            <mxPoint x="905.5900000000001" y="3.5358580239382733" as="targetPoint" />
          </mxGeometry>
        </mxCell>
        <mxCell id="Nktsm34Fh5tqj6Ti2t0z-73" value="" style="endArrow=none;html=1;rounded=0;exitX=0.75;exitY=0;exitDx=0;exitDy=0;dashed=1;strokeWidth=3;" parent="J6pw8MApclt_jU-j7pKg-1" edge="1">
          <mxGeometry width="50" height="50" relative="1" as="geometry">
            <mxPoint x="758.2499999999997" y="727.2081335899741" as="sourcePoint" />
            <mxPoint x="758.0000000000001" y="3.5358580239382733" as="targetPoint" />
          </mxGeometry>
        </mxCell>
        <mxCell id="Nktsm34Fh5tqj6Ti2t0z-74" value="" style="endArrow=none;html=1;rounded=0;exitX=0.75;exitY=0;exitDx=0;exitDy=0;dashed=1;strokeWidth=3;" parent="J6pw8MApclt_jU-j7pKg-1" edge="1">
          <mxGeometry width="50" height="50" relative="1" as="geometry">
            <mxPoint x="1506.1599999999996" y="730.7439916139124" as="sourcePoint" />
            <mxPoint x="1505.91" y="7.071716047876594" as="targetPoint" />
          </mxGeometry>
        </mxCell>
        <mxCell id="Nktsm34Fh5tqj6Ti2t0z-75" value="" style="endArrow=none;html=1;rounded=0;exitX=0.75;exitY=0;exitDx=0;exitDy=0;dashed=1;strokeWidth=3;" parent="J6pw8MApclt_jU-j7pKg-1" edge="1">
          <mxGeometry width="50" height="50" relative="1" as="geometry">
            <mxPoint x="1363.2499999999998" y="726.0295142486614" as="sourcePoint" />
            <mxPoint x="1363.0000000000002" y="2.3572386826255154" as="targetPoint" />
          </mxGeometry>
        </mxCell>
        <mxCell id="Nktsm34Fh5tqj6Ti2t0z-77" value="" style="endArrow=none;html=1;rounded=0;exitX=0.75;exitY=0;exitDx=0;exitDy=0;dashed=1;strokeWidth=3;" parent="J6pw8MApclt_jU-j7pKg-1" edge="1">
          <mxGeometry width="50" height="50" relative="1" as="geometry">
            <mxPoint x="1942.25" y="723.6722755660358" as="sourcePoint" />
            <mxPoint x="1942.0000000000005" as="targetPoint" />
          </mxGeometry>
        </mxCell>
        <mxCell id="Nktsm34Fh5tqj6Ti2t0z-78" value="" style="endArrow=none;html=1;rounded=0;exitX=0.75;exitY=0;exitDx=0;exitDy=0;dashed=1;strokeWidth=3;" parent="J6pw8MApclt_jU-j7pKg-1" edge="1">
          <mxGeometry width="50" height="50" relative="1" as="geometry">
            <mxPoint x="1810.75" y="726.0295142486614" as="sourcePoint" />
            <mxPoint x="1810.5000000000005" y="2.3572386826255154" as="targetPoint" />
          </mxGeometry>
        </mxCell>
        <mxCell id="Nktsm34Fh5tqj6Ti2t0z-79" value="" style="endArrow=none;html=1;rounded=0;exitX=0.75;exitY=0;exitDx=0;exitDy=0;dashed=1;strokeWidth=3;" parent="J6pw8MApclt_jU-j7pKg-1" edge="1">
          <mxGeometry width="50" height="50" relative="1" as="geometry">
            <mxPoint x="1663.1599999999996" y="726.0295142486614" as="sourcePoint" />
            <mxPoint x="1662.91" y="2.3572386826255154" as="targetPoint" />
          </mxGeometry>
        </mxCell>
        <mxCell id="Nktsm34Fh5tqj6Ti2t0z-69" value="" style="endArrow=none;html=1;rounded=0;exitX=0.75;exitY=0;exitDx=0;exitDy=0;dashed=1;strokeWidth=3;" parent="J6pw8MApclt_jU-j7pKg-1" edge="1">
          <mxGeometry width="50" height="50" relative="1" as="geometry">
            <mxPoint x="601.2499999999997" y="731.922610955225" as="sourcePoint" />
            <mxPoint x="601.0000000000001" y="8.25033538918935" as="targetPoint" />
          </mxGeometry>
        </mxCell>
        <mxCell id="Nktsm34Fh5tqj6Ti2t0z-68" value="" style="endArrow=none;html=1;rounded=0;exitX=0.75;exitY=0;exitDx=0;exitDy=0;dashed=1;strokeWidth=3;" parent="J6pw8MApclt_jU-j7pKg-1" edge="1">
          <mxGeometry width="50" height="50" relative="1" as="geometry">
            <mxPoint x="458.33999999999963" y="727.2081335899741" as="sourcePoint" />
            <mxPoint x="458.0900000000001" y="3.5358580239382733" as="targetPoint" />
          </mxGeometry>
        </mxCell>
        <mxCell id="Nktsm34Fh5tqj6Ti2t0z-67" value="" style="endArrow=none;html=1;rounded=0;exitX=0.75;exitY=0;exitDx=0;exitDy=0;dashed=1;strokeWidth=3;" parent="J6pw8MApclt_jU-j7pKg-1" edge="1">
          <mxGeometry width="50" height="50" relative="1" as="geometry">
            <mxPoint x="308.8399999999996" y="727.2081335899741" as="sourcePoint" />
            <mxPoint x="308.59000000000003" y="3.5358580239382733" as="targetPoint" />
          </mxGeometry>
        </mxCell>
        <mxCell id="Nktsm34Fh5tqj6Ti2t0z-66" value="" style="endArrow=none;html=1;rounded=0;exitX=0.75;exitY=0;exitDx=0;exitDy=0;dashed=1;strokeWidth=3;" parent="J6pw8MApclt_jU-j7pKg-1" edge="1">
          <mxGeometry width="50" height="50" relative="1" as="geometry">
            <mxPoint x="154.24999999999955" y="727.2081335899741" as="sourcePoint" />
            <mxPoint x="154" y="3.5358580239382733" as="targetPoint" />
          </mxGeometry>
        </mxCell>
        <mxCell id="Nktsm34Fh5tqj6Ti2t0z-57" value="" style="group" parent="J6pw8MApclt_jU-j7pKg-1" vertex="1" connectable="0">
          <mxGeometry x="1480" y="533" width="568" height="46" as="geometry" />
        </mxCell>
        <mxCell id="Nktsm34Fh5tqj6Ti2t0z-58" value="Eurosys 26 Fall" style="rounded=1;whiteSpace=wrap;html=1;fontStyle=1;fontSize=24;" parent="Nktsm34Fh5tqj6Ti2t0z-57" vertex="1">
          <mxGeometry x="7.553191489361702" y="9.000000000000002" width="548.3617021276596" height="32" as="geometry" />
        </mxCell>
        <mxCell id="Nktsm34Fh5tqj6Ti2t0z-59" value="09.25" style="text;html=1;align=center;verticalAlign=middle;resizable=0;points=[];autosize=1;strokeColor=none;fillColor=none;fontSize=23;fontStyle=1" parent="Nktsm34Fh5tqj6Ti2t0z-57" vertex="1">
          <mxGeometry x="-2.5357142857142856" y="2" width="80" height="40" as="geometry" />
        </mxCell>
        <mxCell id="Nktsm34Fh5tqj6Ti2t0z-60" value="01.30" style="text;html=1;align=center;verticalAlign=middle;resizable=0;points=[];autosize=1;strokeColor=none;fillColor=none;fontSize=23;fontStyle=1" parent="Nktsm34Fh5tqj6Ti2t0z-57" vertex="1">
          <mxGeometry x="448.1200607902735" y="5.999999999999999" width="80" height="40" as="geometry" />
        </mxCell>
        <mxCell id="Nktsm34Fh5tqj6Ti2t0z-125" value="02.23" style="text;html=1;align=center;verticalAlign=middle;resizable=0;points=[];autosize=1;strokeColor=none;fillColor=none;fontSize=23;fontStyle=1" parent="J6pw8MApclt_jU-j7pKg-1" vertex="1">
          <mxGeometry x="309.99920634920636" y="334.0047619047619" width="80" height="40" as="geometry" />
        </mxCell>
        <mxCell id="Nktsm34Fh5tqj6Ti2t0z-94" value="" style="group" parent="J6pw8MApclt_jU-j7pKg-1" vertex="1" connectable="0">
          <mxGeometry x="-0.75" y="364" width="1967.5" height="102.99999999999999" as="geometry" />
        </mxCell>
        <mxCell id="Nktsm34Fh5tqj6Ti2t0z-95" value="" style="rounded=0;whiteSpace=wrap;html=1;fillColor=#6a00ff;strokeColor=#3700CC;fontColor=#ffffff;" parent="Nktsm34Fh5tqj6Ti2t0z-94" vertex="1">
          <mxGeometry x="147" y="8" width="11" height="59.99999999999999" as="geometry" />
        </mxCell>
        <mxCell id="Nktsm34Fh5tqj6Ti2t0z-97" value="" style="rounded=0;whiteSpace=wrap;html=1;fillColor=#6a00ff;strokeColor=#3700CC;fontColor=#ffffff;" parent="Nktsm34Fh5tqj6Ti2t0z-94" vertex="1">
          <mxGeometry x="304" y="8" width="11" height="59.99999999999999" as="geometry" />
        </mxCell>
        <mxCell id="Nktsm34Fh5tqj6Ti2t0z-99" value="" style="rounded=0;whiteSpace=wrap;html=1;fillColor=#6a00ff;strokeColor=#3700CC;fontColor=#ffffff;" parent="Nktsm34Fh5tqj6Ti2t0z-94" vertex="1">
          <mxGeometry x="451" y="8" width="11" height="59.99999999999999" as="geometry" />
        </mxCell>
        <mxCell id="Nktsm34Fh5tqj6Ti2t0z-101" value="" style="rounded=0;whiteSpace=wrap;html=1;fillColor=#6a00ff;strokeColor=#3700CC;fontColor=#ffffff;" parent="Nktsm34Fh5tqj6Ti2t0z-94" vertex="1">
          <mxGeometry x="594" y="5.999999999999999" width="11" height="59.99999999999999" as="geometry" />
        </mxCell>
        <mxCell id="Nktsm34Fh5tqj6Ti2t0z-103" value="" style="rounded=0;whiteSpace=wrap;html=1;fillColor=#6a00ff;strokeColor=#3700CC;fontColor=#ffffff;" parent="Nktsm34Fh5tqj6Ti2t0z-94" vertex="1">
          <mxGeometry x="751" y="5.999999999999999" width="11" height="59.99999999999999" as="geometry" />
        </mxCell>
        <mxCell id="Nktsm34Fh5tqj6Ti2t0z-105" value="" style="rounded=0;whiteSpace=wrap;html=1;fillColor=#6a00ff;strokeColor=#3700CC;fontColor=#ffffff;" parent="Nktsm34Fh5tqj6Ti2t0z-94" vertex="1">
          <mxGeometry x="898" y="5.999999999999999" width="11" height="59.99999999999999" as="geometry" />
        </mxCell>
        <mxCell id="Nktsm34Fh5tqj6Ti2t0z-107" value="" style="rounded=0;whiteSpace=wrap;html=1;fillColor=#6a00ff;strokeColor=#3700CC;fontColor=#ffffff;" parent="Nktsm34Fh5tqj6Ti2t0z-94" vertex="1">
          <mxGeometry x="1053" y="2" width="11" height="59.99999999999999" as="geometry" />
        </mxCell>
        <mxCell id="Nktsm34Fh5tqj6Ti2t0z-109" value="" style="rounded=0;whiteSpace=wrap;html=1;fillColor=#6a00ff;strokeColor=#3700CC;fontColor=#ffffff;" parent="Nktsm34Fh5tqj6Ti2t0z-94" vertex="1">
          <mxGeometry x="1210" y="2" width="11" height="59.99999999999999" as="geometry" />
        </mxCell>
        <mxCell id="Nktsm34Fh5tqj6Ti2t0z-111" value="" style="rounded=0;whiteSpace=wrap;html=1;fillColor=#6a00ff;strokeColor=#3700CC;fontColor=#ffffff;" parent="Nktsm34Fh5tqj6Ti2t0z-94" vertex="1">
          <mxGeometry x="1357" y="2" width="11" height="59.99999999999999" as="geometry" />
        </mxCell>
        <mxCell id="Nktsm34Fh5tqj6Ti2t0z-113" value="" style="rounded=0;whiteSpace=wrap;html=1;fillColor=#6a00ff;strokeColor=#3700CC;fontColor=#ffffff;" parent="Nktsm34Fh5tqj6Ti2t0z-94" vertex="1">
          <mxGeometry x="1500" width="11" height="59.99999999999999" as="geometry" />
        </mxCell>
        <mxCell id="Nktsm34Fh5tqj6Ti2t0z-115" value="" style="rounded=0;whiteSpace=wrap;html=1;fillColor=#6a00ff;strokeColor=#3700CC;fontColor=#ffffff;" parent="Nktsm34Fh5tqj6Ti2t0z-94" vertex="1">
          <mxGeometry x="1657" width="11" height="59.99999999999999" as="geometry" />
        </mxCell>
        <mxCell id="Nktsm34Fh5tqj6Ti2t0z-117" value="" style="rounded=0;whiteSpace=wrap;html=1;fillColor=#6a00ff;strokeColor=#3700CC;fontColor=#ffffff;" parent="Nktsm34Fh5tqj6Ti2t0z-94" vertex="1">
          <mxGeometry x="1804" width="11" height="59.99999999999999" as="geometry" />
        </mxCell>
        <mxCell id="Nktsm34Fh5tqj6Ti2t0z-120" value="" style="endArrow=none;html=1;rounded=0;" parent="Nktsm34Fh5tqj6Ti2t0z-94" source="Nktsm34Fh5tqj6Ti2t0z-146" edge="1">
          <mxGeometry width="50" height="50" relative="1" as="geometry">
            <mxPoint x="-79.25" y="43.00000000000001" as="sourcePoint" />
            <mxPoint x="2130.75" y="29.999999999999996" as="targetPoint" />
          </mxGeometry>
        </mxCell>
        <mxCell id="Nktsm34Fh5tqj6Ti2t0z-121" value="" style="rounded=0;whiteSpace=wrap;html=1;fillColor=#d80073;strokeColor=#A50040;fontColor=#ffffff;" parent="Nktsm34Fh5tqj6Ti2t0z-94" vertex="1">
          <mxGeometry x="1936" width="11" height="59.99999999999999" as="geometry" />
        </mxCell>
        <mxCell id="Nktsm34Fh5tqj6Ti2t0z-147" value="" style="endArrow=none;html=1;rounded=0;" parent="Nktsm34Fh5tqj6Ti2t0z-94" target="Nktsm34Fh5tqj6Ti2t0z-146" edge="1">
          <mxGeometry width="50" height="50" relative="1" as="geometry">
            <mxPoint x="-199.25" y="42" as="sourcePoint" />
            <mxPoint x="2010" y="100" as="targetPoint" />
          </mxGeometry>
        </mxCell>
        <mxCell id="Nktsm34Fh5tqj6Ti2t0z-146" value="" style="rounded=0;whiteSpace=wrap;html=1;fillColor=#1ba1e2;strokeColor=#006EAF;fontColor=#ffffff;" parent="Nktsm34Fh5tqj6Ti2t0z-94" vertex="1">
          <mxGeometry x="-4.25" y="11.999999999999998" width="11" height="59.99999999999999" as="geometry" />
        </mxCell>
        <mxCell id="Nktsm34Fh5tqj6Ti2t0z-96" value="1月" style="text;html=1;align=center;verticalAlign=middle;resizable=0;points=[];autosize=1;fontSize=16;fontStyle=1;fillColor=default;" parent="Nktsm34Fh5tqj6Ti2t0z-94" vertex="1">
          <mxGeometry x="131" y="72.00000000000001" width="43" height="31" as="geometry" />
        </mxCell>
        <mxCell id="Nktsm34Fh5tqj6Ti2t0z-98" value="2月" style="text;html=1;align=center;verticalAlign=middle;resizable=0;points=[];autosize=1;fontSize=16;fontStyle=1;fillColor=default;" parent="Nktsm34Fh5tqj6Ti2t0z-94" vertex="1">
          <mxGeometry x="288" y="72.00000000000001" width="43" height="31" as="geometry" />
        </mxCell>
        <mxCell id="Nktsm34Fh5tqj6Ti2t0z-100" value="3月" style="text;html=1;align=center;verticalAlign=middle;resizable=0;points=[];autosize=1;fontSize=16;fontStyle=1;fillColor=default;" parent="Nktsm34Fh5tqj6Ti2t0z-94" vertex="1">
          <mxGeometry x="435" y="72.00000000000001" width="43" height="31" as="geometry" />
        </mxCell>
        <mxCell id="Nktsm34Fh5tqj6Ti2t0z-102" value="4月" style="text;html=1;align=center;verticalAlign=middle;resizable=0;points=[];autosize=1;fontSize=16;fontStyle=1;fillColor=default;" parent="Nktsm34Fh5tqj6Ti2t0z-94" vertex="1">
          <mxGeometry x="578" y="70" width="43" height="31" as="geometry" />
        </mxCell>
        <mxCell id="Nktsm34Fh5tqj6Ti2t0z-104" value="5月" style="text;html=1;align=center;verticalAlign=middle;resizable=0;points=[];autosize=1;fontSize=16;fontStyle=1;fillColor=default;" parent="Nktsm34Fh5tqj6Ti2t0z-94" vertex="1">
          <mxGeometry x="735" y="70" width="43" height="31" as="geometry" />
        </mxCell>
        <mxCell id="Nktsm34Fh5tqj6Ti2t0z-106" value="6月" style="text;html=1;align=center;verticalAlign=middle;resizable=0;points=[];autosize=1;fontSize=16;fontStyle=1;fillColor=default;" parent="Nktsm34Fh5tqj6Ti2t0z-94" vertex="1">
          <mxGeometry x="882" y="70" width="43" height="31" as="geometry" />
        </mxCell>
        <mxCell id="Nktsm34Fh5tqj6Ti2t0z-108" value="7月" style="text;html=1;align=center;verticalAlign=middle;resizable=0;points=[];autosize=1;fontSize=16;fontStyle=1;fillColor=default;" parent="Nktsm34Fh5tqj6Ti2t0z-94" vertex="1">
          <mxGeometry x="1037" y="66" width="43" height="31" as="geometry" />
        </mxCell>
        <mxCell id="Nktsm34Fh5tqj6Ti2t0z-110" value="8月" style="text;html=1;align=center;verticalAlign=middle;resizable=0;points=[];autosize=1;fontSize=16;fontStyle=1;fillColor=default;" parent="Nktsm34Fh5tqj6Ti2t0z-94" vertex="1">
          <mxGeometry x="1194" y="66" width="43" height="31" as="geometry" />
        </mxCell>
        <mxCell id="Nktsm34Fh5tqj6Ti2t0z-112" value="9月" style="text;html=1;align=center;verticalAlign=middle;resizable=0;points=[];autosize=1;fontSize=16;fontStyle=1;fillColor=default;" parent="Nktsm34Fh5tqj6Ti2t0z-94" vertex="1">
          <mxGeometry x="1341" y="66" width="43" height="31" as="geometry" />
        </mxCell>
        <mxCell id="Nktsm34Fh5tqj6Ti2t0z-114" value="10月" style="text;html=1;align=center;verticalAlign=middle;resizable=0;points=[];autosize=1;fontSize=16;fontStyle=1;fillColor=default;" parent="Nktsm34Fh5tqj6Ti2t0z-94" vertex="1">
          <mxGeometry x="1480" y="64" width="52" height="31" as="geometry" />
        </mxCell>
        <mxCell id="Nktsm34Fh5tqj6Ti2t0z-116" value="11月" style="text;html=1;align=center;verticalAlign=middle;resizable=0;points=[];autosize=1;fontSize=16;fontStyle=1;fillColor=default;" parent="Nktsm34Fh5tqj6Ti2t0z-94" vertex="1">
          <mxGeometry x="1637" y="64" width="51" height="31" as="geometry" />
        </mxCell>
        <mxCell id="Nktsm34Fh5tqj6Ti2t0z-118" value="12月" style="text;html=1;align=center;verticalAlign=middle;resizable=0;points=[];autosize=1;fontSize=16;fontStyle=1;fillColor=default;" parent="Nktsm34Fh5tqj6Ti2t0z-94" vertex="1">
          <mxGeometry x="1784" y="64" width="52" height="31" as="geometry" />
        </mxCell>
        <mxCell id="Nktsm34Fh5tqj6Ti2t0z-119" value="01月" style="text;html=1;align=center;verticalAlign=middle;resizable=0;points=[];autosize=1;fontSize=16;fontStyle=1;fillColor=default;" parent="Nktsm34Fh5tqj6Ti2t0z-94" vertex="1">
          <mxGeometry x="1915.5" y="68" width="52" height="31" as="geometry" />
        </mxCell>
        <mxCell id="Nktsm34Fh5tqj6Ti2t0z-148" value="12月" style="text;html=1;align=center;verticalAlign=middle;resizable=0;points=[];autosize=1;fontSize=16;fontStyle=1;fillColor=default;" parent="Nktsm34Fh5tqj6Ti2t0z-94" vertex="1">
          <mxGeometry x="-24.25" y="73" width="60" height="30" as="geometry" />
        </mxCell>
        <mxCell id="Nktsm34Fh5tqj6Ti2t0z-126" value="04.04" style="text;html=1;align=center;verticalAlign=middle;resizable=0;points=[];autosize=1;strokeColor=none;fillColor=none;fontSize=23;fontStyle=1" parent="Nktsm34Fh5tqj6Ti2t0z-94" vertex="1">
          <mxGeometry x="605.0021850726106" y="-27.999999999999996" width="80" height="40" as="geometry" />
        </mxCell>
        <mxCell id="Nktsm34Fh5tqj6Ti2t0z-131" value="CCF B" style="text;html=1;align=center;verticalAlign=middle;resizable=0;points=[];autosize=1;strokeColor=none;fillColor=none;fontSize=24;fontStyle=1" parent="J6pw8MApclt_jU-j7pKg-1" vertex="1">
          <mxGeometry x="-140" y="253.99999999999997" width="100" height="40" as="geometry" />
        </mxCell>
        <mxCell id="Nktsm34Fh5tqj6Ti2t0z-135" value="08.30" style="text;html=1;align=center;verticalAlign=middle;resizable=0;points=[];autosize=1;strokeColor=none;fillColor=none;fontSize=23;fontStyle=1" parent="J6pw8MApclt_jU-j7pKg-1" vertex="1">
          <mxGeometry x="1273.5885714285714" y="254.00454545454545" width="80" height="40" as="geometry" />
        </mxCell>
        <mxCell id="Nktsm34Fh5tqj6Ti2t0z-136" value="10.18" style="text;html=1;align=center;verticalAlign=middle;resizable=0;points=[];autosize=1;strokeColor=none;fillColor=default;fontSize=23;fontStyle=1" parent="J6pw8MApclt_jU-j7pKg-1" vertex="1">
          <mxGeometry x="1608.9964186144011" y="251.14989204545455" width="80" height="40" as="geometry" />
        </mxCell>
        <mxCell id="Nktsm34Fh5tqj6Ti2t0z-130" value="07.25" style="text;html=1;align=center;verticalAlign=middle;resizable=0;points=[];autosize=1;strokeColor=none;fillColor=default;fontSize=23;fontStyle=1" parent="J6pw8MApclt_jU-j7pKg-1" vertex="1">
          <mxGeometry x="1176.000913018668" y="293.99999999999994" width="80" height="40" as="geometry" />
        </mxCell>
        <mxCell id="Nktsm34Fh5tqj6Ti2t0z-129" value="05.16" style="text;html=1;align=center;verticalAlign=middle;resizable=0;points=[];autosize=1;strokeColor=none;fillColor=none;fontSize=23;fontStyle=1" parent="J6pw8MApclt_jU-j7pKg-1" vertex="1">
          <mxGeometry x="770.0011111111111" y="294.9547619047619" width="80" height="40" as="geometry" />
        </mxCell>
        <mxCell id="Nktsm34Fh5tqj6Ti2t0z-123" value="" style="group" parent="J6pw8MApclt_jU-j7pKg-1" vertex="1" connectable="0">
          <mxGeometry x="400" y="334" width="210" height="40" as="geometry" />
        </mxCell>
        <mxCell id="Nktsm34Fh5tqj6Ti2t0z-124" value="IWQOS 25 (10P)&amp;nbsp;" style="rounded=1;whiteSpace=wrap;html=1;fontStyle=1;fontSize=24;" parent="Nktsm34Fh5tqj6Ti2t0z-123" vertex="1">
          <mxGeometry x="2.792553191489363" y="3.8095238095238093" width="202.7393617021277" height="30.476190476190474" as="geometry" />
        </mxCell>
        <mxCell id="Nktsm34Fh5tqj6Ti2t0z-127" value="" style="group" parent="J6pw8MApclt_jU-j7pKg-1" vertex="1" connectable="0">
          <mxGeometry x="840" y="293.99999999999994" width="350" height="41.904761904761905" as="geometry" />
        </mxCell>
        <mxCell id="Nktsm34Fh5tqj6Ti2t0z-128" value="ICNP 25 (10P+Ref)&amp;nbsp;" style="rounded=1;whiteSpace=wrap;html=1;fontStyle=1;fontSize=24;" parent="Nktsm34Fh5tqj6Ti2t0z-127" vertex="1">
          <mxGeometry x="4.654255319148937" y="3.8095238095238093" width="337.8989361702128" height="30.476190476190474" as="geometry" />
        </mxCell>
        <mxCell id="Nktsm34Fh5tqj6Ti2t0z-133" value="" style="group" parent="J6pw8MApclt_jU-j7pKg-1" vertex="1" connectable="0">
          <mxGeometry x="1350" y="252.1" width="270" height="41.9" as="geometry" />
        </mxCell>
        <mxCell id="Nktsm34Fh5tqj6Ti2t0z-134" value="SECON 24 (9P)" style="rounded=1;whiteSpace=wrap;html=1;fontStyle=1;fontSize=24;" parent="Nktsm34Fh5tqj6Ti2t0z-133" vertex="1">
          <mxGeometry x="3.590425531914894" y="3.8090909090909086" width="260.6648936170213" height="30.47272727272727" as="geometry" />
        </mxCell>
        <mxCell id="Nktsm34Fh5tqj6Ti2t0z-202" value="12.11" style="text;html=1;align=center;verticalAlign=middle;resizable=0;points=[];autosize=1;strokeColor=none;fillColor=default;fontSize=23;fontStyle=1" parent="J6pw8MApclt_jU-j7pKg-1" vertex="1">
          <mxGeometry x="-44.00079365079364" y="140.00476190476192" width="80" height="40" as="geometry" />
        </mxCell>
        <mxCell id="Nktsm34Fh5tqj6Ti2t0z-137" value="" style="group" parent="J6pw8MApclt_jU-j7pKg-1" vertex="1" connectable="0">
          <mxGeometry x="1138.5900000000001" y="174.00000000000003" width="295.41" height="41.9" as="geometry" />
        </mxCell>
        <mxCell id="Nktsm34Fh5tqj6Ti2t0z-138" value="SOCC 24 (12P+Ref)&amp;nbsp;" style="rounded=1;whiteSpace=wrap;html=1;fontStyle=1;fontSize=24;" parent="Nktsm34Fh5tqj6Ti2t0z-137" vertex="1">
          <mxGeometry x="3.928324468085107" y="3.8090909090909086" width="285.19635638297876" height="30.47272727272727" as="geometry" />
        </mxCell>
        <mxCell id="Nktsm34Fh5tqj6Ti2t0z-140" value="07.15" style="text;html=1;align=center;verticalAlign=middle;resizable=0;points=[];autosize=1;strokeColor=none;fillColor=none;fontSize=23;fontStyle=1" parent="J6pw8MApclt_jU-j7pKg-1" vertex="1">
          <mxGeometry x="1060.0011111111112" y="175.90476190476193" width="80" height="40" as="geometry" />
        </mxCell>
        <mxCell id="Nktsm34Fh5tqj6Ti2t0z-141" value="09.25" style="text;html=1;align=center;verticalAlign=middle;resizable=0;points=[];autosize=1;strokeColor=none;fillColor=none;fontSize=23;fontStyle=1" parent="J6pw8MApclt_jU-j7pKg-1" vertex="1">
          <mxGeometry x="1420.0011111111112" y="174.00476190476195" width="80" height="40" as="geometry" />
        </mxCell>
        <mxCell id="Nktsm34Fh5tqj6Ti2t0z-142" value="" style="group" parent="J6pw8MApclt_jU-j7pKg-1" vertex="1" connectable="0">
          <mxGeometry x="313.72" y="209.99999999999997" width="170.28" height="54" as="geometry" />
        </mxCell>
        <mxCell id="Nktsm34Fh5tqj6Ti2t0z-143" value="&lt;p style=&quot;line-height: 80%;&quot;&gt;NOSSDAV 24 (6P+1Ref)&amp;nbsp;&lt;/p&gt;" style="rounded=1;whiteSpace=wrap;html=1;fontStyle=1;fontSize=24;" parent="Nktsm34Fh5tqj6Ti2t0z-142" vertex="1">
          <mxGeometry x="2.26436170212766" y="4.909090909090909" width="164.3926595744681" height="39.27272727272727" as="geometry" />
        </mxCell>
        <mxCell id="Nktsm34Fh5tqj6Ti2t0z-144" value="02.02" style="text;html=1;align=center;verticalAlign=middle;resizable=0;points=[];autosize=1;strokeColor=none;fillColor=none;fontSize=23;fontStyle=1" parent="J6pw8MApclt_jU-j7pKg-1" vertex="1">
          <mxGeometry x="236.7192063492064" y="217.8047619047619" width="80" height="40" as="geometry" />
        </mxCell>
        <mxCell id="Nktsm34Fh5tqj6Ti2t0z-145" value="03.08" style="text;html=1;align=center;verticalAlign=middle;resizable=0;points=[];autosize=1;strokeColor=none;fillColor=none;fontSize=23;fontStyle=1" parent="J6pw8MApclt_jU-j7pKg-1" vertex="1">
          <mxGeometry x="469.99920634920636" y="215.90476190476193" width="80" height="40" as="geometry" />
        </mxCell>
        <mxCell id="Nktsm34Fh5tqj6Ti2t0z-201" value="04.02" style="text;html=1;align=center;verticalAlign=middle;resizable=0;points=[];autosize=1;strokeColor=none;fillColor=none;fontSize=23;fontStyle=1" parent="J6pw8MApclt_jU-j7pKg-1" vertex="1">
          <mxGeometry x="609.9992063492064" y="140.53476190476192" width="80" height="40" as="geometry" />
        </mxCell>
        <mxCell id="Nktsm34Fh5tqj6Ti2t0z-176" value="ICDCS 24 (11P+Ref)&amp;nbsp;" style="rounded=1;whiteSpace=wrap;html=1;fontStyle=1;fontSize=24;" parent="J6pw8MApclt_jU-j7pKg-1" vertex="1">
          <mxGeometry x="40" y="143.52999999999997" width="579" height="30.47" as="geometry" />
        </mxCell>
        <mxCell id="5Cs6iRBIuVZG9UA_UnIa-2" value="CoNext Winter 25 (8P)&amp;nbsp;" style="rounded=1;whiteSpace=wrap;html=1;fontStyle=1;fontSize=24;" parent="J6pw8MApclt_jU-j7pKg-1" vertex="1">
          <mxGeometry x="10" y="108" width="620" height="30.47" as="geometry" />
        </mxCell>
        <mxCell id="5Cs6iRBIuVZG9UA_UnIa-4" value="04.04" style="text;html=1;align=center;verticalAlign=middle;resizable=0;points=[];autosize=1;strokeColor=none;fillColor=none;fontSize=23;fontStyle=1" parent="J6pw8MApclt_jU-j7pKg-1" vertex="1">
          <mxGeometry x="630.0011111111112" y="103.53476190476195" width="80" height="40" as="geometry" />
        </mxCell>
        <mxCell id="5Cs6iRBIuVZG9UA_UnIa-6" value="06.14" style="text;html=1;align=center;verticalAlign=middle;resizable=0;points=[];autosize=1;strokeColor=none;fillColor=none;fontSize=23;fontStyle=1" parent="J6pw8MApclt_jU-j7pKg-1" vertex="1">
          <mxGeometry x="910.0011111111112" y="103.53476190476194" width="80" height="40" as="geometry" />
        </mxCell>
        <mxCell id="5Cs6iRBIuVZG9UA_UnIa-7" value="09.12" style="text;html=1;align=center;verticalAlign=middle;resizable=0;points=[];autosize=1;strokeColor=none;fillColor=none;fontSize=23;fontStyle=1" parent="J6pw8MApclt_jU-j7pKg-1" vertex="1">
          <mxGeometry x="1420.0011111111112" y="103.23476190476194" width="80" height="40" as="geometry" />
        </mxCell>
        <mxCell id="Jms9zx6o9EchXgoFY5cB-1" value="" style="group" parent="J6pw8MApclt_jU-j7pKg-1" vertex="1" connectable="0">
          <mxGeometry x="750" y="61.33" width="368" height="41.9" as="geometry" />
        </mxCell>
        <mxCell id="Jms9zx6o9EchXgoFY5cB-2" value="ICPP 25 (10P)&amp;nbsp;" style="rounded=1;whiteSpace=wrap;html=1;fontStyle=1;fontSize=24;" parent="Jms9zx6o9EchXgoFY5cB-1" vertex="1">
          <mxGeometry x="20" y="3.81" width="179.77" height="30.48" as="geometry" />
        </mxCell>
        <mxCell id="Jms9zx6o9EchXgoFY5cB-4" value="06.10" style="text;html=1;align=center;verticalAlign=middle;resizable=0;points=[];autosize=1;strokeColor=none;fillColor=none;fontSize=23;fontStyle=1" parent="Jms9zx6o9EchXgoFY5cB-1" vertex="1">
          <mxGeometry x="198.19545396825407" y="-0.9451306818180977" width="80" height="40" as="geometry" />
        </mxCell>
        <mxCell id="Jms9zx6o9EchXgoFY5cB-3" value="05.01" style="text;html=1;align=center;verticalAlign=middle;resizable=0;points=[];autosize=1;strokeColor=none;fillColor=none;fontSize=23;fontStyle=1" parent="J6pw8MApclt_jU-j7pKg-1" vertex="1">
          <mxGeometry x="680.0011111111112" y="61.33476190476193" width="80" height="40" as="geometry" />
        </mxCell>
        <mxCell id="cj9tXSD4sPh9MYHQLfbV-1" value="" style="group" parent="J6pw8MApclt_jU-j7pKg-1" vertex="1" connectable="0">
          <mxGeometry x="750" y="19.43" width="460" height="41.9" as="geometry" />
        </mxCell>
        <mxCell id="cj9tXSD4sPh9MYHQLfbV-2" value="CLUSTER25 (10P+ref)&amp;nbsp;" style="rounded=1;whiteSpace=wrap;html=1;fontStyle=1;fontSize=24;" parent="cj9tXSD4sPh9MYHQLfbV-1" vertex="1">
          <mxGeometry x="-13.14" y="3.81" width="333.14" height="30.48" as="geometry" />
        </mxCell>
        <mxCell id="cj9tXSD4sPh9MYHQLfbV-3" value="07.04" style="text;html=1;align=center;verticalAlign=middle;resizable=0;points=[];autosize=1;strokeColor=none;fillColor=none;fontSize=23;fontStyle=1" parent="cj9tXSD4sPh9MYHQLfbV-1" vertex="1">
          <mxGeometry x="330.00431746031757" y="0.004869318181902282" width="80" height="40" as="geometry" />
        </mxCell>
        <mxCell id="cj9tXSD4sPh9MYHQLfbV-4" value="04.25" style="text;html=1;align=center;verticalAlign=middle;resizable=0;points=[];autosize=1;strokeColor=none;fillColor=none;fontSize=23;fontStyle=1" parent="J6pw8MApclt_jU-j7pKg-1" vertex="1">
          <mxGeometry x="660.0011111111112" y="20.384761904761945" width="80" height="40" as="geometry" />
        </mxCell>
        <mxCell id="Nktsm34Fh5tqj6Ti2t0z-84" value="" style="group" parent="J6pw8MApclt_jU-j7pKg-1" vertex="1" connectable="0">
          <mxGeometry x="1320" y="467" width="460" height="42" as="geometry" />
        </mxCell>
        <mxCell id="Nktsm34Fh5tqj6Ti2t0z-85" value="ASPLOS 26 Summer" style="rounded=1;whiteSpace=wrap;html=1;fontStyle=1;fontSize=24;" parent="Nktsm34Fh5tqj6Ti2t0z-84" vertex="1">
          <mxGeometry x="5.92694975304717" y="4" width="445.22892697143885" height="32" as="geometry" />
        </mxCell>
        <mxCell id="Nktsm34Fh5tqj6Ti2t0z-86" value="08.20" style="text;html=1;align=center;verticalAlign=middle;resizable=0;points=[];autosize=1;strokeColor=none;fillColor=none;fontSize=23;fontStyle=1" parent="Nktsm34Fh5tqj6Ti2t0z-84" vertex="1">
          <mxGeometry x="-1.7692387322528864" y="2" width="80" height="40" as="geometry" />
        </mxCell>
        <mxCell id="Nktsm34Fh5tqj6Ti2t0z-87" value="11.24" style="text;html=1;align=center;verticalAlign=middle;resizable=0;points=[];autosize=1;strokeColor=none;fillColor=none;fontSize=23;fontStyle=1" parent="Nktsm34Fh5tqj6Ti2t0z-84" vertex="1">
          <mxGeometry x="380.0004507098845" y="2" width="80" height="40" as="geometry" />
        </mxCell>
        <mxCell id="Nktsm34Fh5tqj6Ti2t0z-1" value="" style="endArrow=none;html=1;rounded=0;" parent="1" source="Nktsm34Fh5tqj6Ti2t0z-40" edge="1">
          <mxGeometry width="50" height="50" relative="1" as="geometry">
            <mxPoint x="1" y="536" as="sourcePoint" />
            <mxPoint x="2003" y="523" as="targetPoint" />
          </mxGeometry>
        </mxCell>
        <mxCell id="Nktsm34Fh5tqj6Ti2t0z-48" value="" style="group" parent="1" vertex="1" connectable="0">
          <mxGeometry x="1090" y="360" width="598" height="40" as="geometry" />
        </mxCell>
        <mxCell id="Nktsm34Fh5tqj6Ti2t0z-44" value="INFOCOM 25&amp;nbsp;" style="rounded=1;whiteSpace=wrap;html=1;fontStyle=1;fontSize=24;" parent="Nktsm34Fh5tqj6Ti2t0z-48" vertex="1">
          <mxGeometry x="4" y="4" width="592" height="32" as="geometry" />
        </mxCell>
        <mxCell id="Nktsm34Fh5tqj6Ti2t0z-45" value="07.31" style="text;html=1;align=center;verticalAlign=middle;resizable=0;points=[];autosize=1;strokeColor=none;fillColor=none;fontSize=23;fontStyle=1" parent="Nktsm34Fh5tqj6Ti2t0z-48" vertex="1">
          <mxGeometry width="76" height="40" as="geometry" />
        </mxCell>
        <mxCell id="Nktsm34Fh5tqj6Ti2t0z-46" value="12.01" style="text;html=1;align=center;verticalAlign=middle;resizable=0;points=[];autosize=1;strokeColor=none;fillColor=none;fontSize=23;fontStyle=1" parent="Nktsm34Fh5tqj6Ti2t0z-48" vertex="1">
          <mxGeometry x="522" width="76" height="40" as="geometry" />
        </mxCell>
        <mxCell id="Nktsm34Fh5tqj6Ti2t0z-49" value="" style="group" parent="1" vertex="1" connectable="0">
          <mxGeometry x="1310" y="400" width="433" height="42" as="geometry" />
        </mxCell>
        <mxCell id="Nktsm34Fh5tqj6Ti2t0z-37" value="NSDI 26 Fall" style="rounded=1;whiteSpace=wrap;html=1;fontStyle=1;fontSize=24;" parent="Nktsm34Fh5tqj6Ti2t0z-49" vertex="1">
          <mxGeometry x="3" y="4" width="428" height="32" as="geometry" />
        </mxCell>
        <mxCell id="Nktsm34Fh5tqj6Ti2t0z-38" value="09.18" style="text;html=1;align=center;verticalAlign=middle;resizable=0;points=[];autosize=1;strokeColor=none;fillColor=none;fontSize=23;fontStyle=1" parent="Nktsm34Fh5tqj6Ti2t0z-49" vertex="1">
          <mxGeometry x="-2" y="2" width="80" height="40" as="geometry" />
        </mxCell>
        <mxCell id="Nktsm34Fh5tqj6Ti2t0z-39" value="12.09" style="text;html=1;align=center;verticalAlign=middle;resizable=0;points=[];autosize=1;strokeColor=none;fillColor=none;fontSize=23;fontStyle=1" parent="Nktsm34Fh5tqj6Ti2t0z-49" vertex="1">
          <mxGeometry x="353" width="80" height="40" as="geometry" />
        </mxCell>
        <mxCell id="Nktsm34Fh5tqj6Ti2t0z-50" value="" style="group" parent="1" vertex="1" connectable="0">
          <mxGeometry x="620" y="401" width="436" height="42" as="geometry" />
        </mxCell>
        <mxCell id="Nktsm34Fh5tqj6Ti2t0z-34" value="NSDI 26 Spring" style="rounded=1;whiteSpace=wrap;html=1;fontStyle=1;fontSize=24;" parent="Nktsm34Fh5tqj6Ti2t0z-50" vertex="1">
          <mxGeometry x="5.797872340425531" y="4" width="420.9255319148936" height="32" as="geometry" />
        </mxCell>
        <mxCell id="Nktsm34Fh5tqj6Ti2t0z-35" value="04.25" style="text;html=1;align=center;verticalAlign=middle;resizable=0;points=[];autosize=1;strokeColor=none;fillColor=none;fontSize=23;fontStyle=1" parent="Nktsm34Fh5tqj6Ti2t0z-50" vertex="1">
          <mxGeometry x="-2" y="2" width="80" height="40" as="geometry" />
        </mxCell>
        <mxCell id="Nktsm34Fh5tqj6Ti2t0z-36" value="07.24" style="text;html=1;align=center;verticalAlign=middle;resizable=0;points=[];autosize=1;strokeColor=none;fillColor=none;fontSize=23;fontStyle=1" parent="Nktsm34Fh5tqj6Ti2t0z-50" vertex="1">
          <mxGeometry x="347.8723404255319" width="76" height="40" as="geometry" />
        </mxCell>
        <mxCell id="Nktsm34Fh5tqj6Ti2t0z-51" value="" style="group" parent="1" vertex="1" connectable="0">
          <mxGeometry x="184" y="443" width="454" height="40" as="geometry" />
        </mxCell>
        <mxCell id="Nktsm34Fh5tqj6Ti2t0z-31" value="SIGCOMM 25" style="rounded=1;whiteSpace=wrap;html=1;fontStyle=1;fontSize=24;" parent="Nktsm34Fh5tqj6Ti2t0z-51" vertex="1">
          <mxGeometry y="5" width="451" height="32" as="geometry" />
        </mxCell>
        <mxCell id="Nktsm34Fh5tqj6Ti2t0z-32" value="01.31" style="text;html=1;align=center;verticalAlign=middle;resizable=0;points=[];autosize=1;strokeColor=none;fillColor=none;fontSize=23;fontStyle=1" parent="Nktsm34Fh5tqj6Ti2t0z-51" vertex="1">
          <mxGeometry width="76" height="40" as="geometry" />
        </mxCell>
        <mxCell id="Nktsm34Fh5tqj6Ti2t0z-33" value="04.29" style="text;html=1;align=center;verticalAlign=middle;resizable=0;points=[];autosize=1;strokeColor=none;fillColor=none;fontSize=23;fontStyle=1" parent="Nktsm34Fh5tqj6Ti2t0z-51" vertex="1">
          <mxGeometry x="378" width="76" height="40" as="geometry" />
        </mxCell>
        <mxCell id="Nktsm34Fh5tqj6Ti2t0z-52" value="" style="group" parent="1" vertex="1" connectable="0">
          <mxGeometry x="720" y="321" width="480" height="42" as="geometry" />
        </mxCell>
        <mxCell id="Nktsm34Fh5tqj6Ti2t0z-53" value="Eurosys 26 Spring" style="rounded=1;whiteSpace=wrap;html=1;fontStyle=1;fontSize=24;" parent="Nktsm34Fh5tqj6Ti2t0z-52" vertex="1">
          <mxGeometry x="6.22" y="4" width="473.78" height="32" as="geometry" />
        </mxCell>
        <mxCell id="Nktsm34Fh5tqj6Ti2t0z-54" value="05.15" style="text;html=1;align=center;verticalAlign=middle;resizable=0;points=[];autosize=1;strokeColor=none;fillColor=none;fontSize=23;fontStyle=1" parent="Nktsm34Fh5tqj6Ti2t0z-52" vertex="1">
          <mxGeometry x="-2.0892857142857144" y="2" width="80" height="40" as="geometry" />
        </mxCell>
        <mxCell id="Nktsm34Fh5tqj6Ti2t0z-55" value="08.22" style="text;html=1;align=center;verticalAlign=middle;resizable=0;points=[];autosize=1;strokeColor=none;fillColor=none;fontSize=23;fontStyle=1" parent="Nktsm34Fh5tqj6Ti2t0z-52" vertex="1">
          <mxGeometry x="400.0049696048632" y="2" width="80" height="40" as="geometry" />
        </mxCell>
        <mxCell id="Nktsm34Fh5tqj6Ti2t0z-61" value="" style="group" parent="1" vertex="1" connectable="0">
          <mxGeometry x="90" y="283" width="504" height="42" as="geometry" />
        </mxCell>
        <mxCell id="Nktsm34Fh5tqj6Ti2t0z-62" value="ATC 25&amp;nbsp;" style="rounded=1;whiteSpace=wrap;html=1;fontStyle=1;fontSize=24;" parent="Nktsm34Fh5tqj6Ti2t0z-61" vertex="1">
          <mxGeometry x="6.70212765957447" y="4" width="486.57446808510645" height="32" as="geometry" />
        </mxCell>
        <mxCell id="Nktsm34Fh5tqj6Ti2t0z-63" value="01.14" style="text;html=1;align=center;verticalAlign=middle;resizable=0;points=[];autosize=1;strokeColor=none;fillColor=none;fontSize=23;fontStyle=1" parent="Nktsm34Fh5tqj6Ti2t0z-61" vertex="1">
          <mxGeometry y="2" width="76" height="40" as="geometry" />
        </mxCell>
        <mxCell id="Nktsm34Fh5tqj6Ti2t0z-64" value="04.25" style="text;html=1;align=center;verticalAlign=middle;resizable=0;points=[];autosize=1;strokeColor=none;fillColor=none;fontSize=23;fontStyle=1" parent="Nktsm34Fh5tqj6Ti2t0z-61" vertex="1">
          <mxGeometry x="402.1276595744681" width="76" height="40" as="geometry" />
        </mxCell>
        <mxCell id="Nktsm34Fh5tqj6Ti2t0z-80" value="" style="group" parent="1" vertex="1" connectable="0">
          <mxGeometry x="370" y="243" width="530" height="42" as="geometry" />
        </mxCell>
        <mxCell id="Nktsm34Fh5tqj6Ti2t0z-81" value="ASPLOS 26 Spring" style="rounded=1;whiteSpace=wrap;html=1;fontStyle=1;fontSize=24;" parent="Nktsm34Fh5tqj6Ti2t0z-80" vertex="1">
          <mxGeometry x="6.78" y="4" width="523.22" height="32" as="geometry" />
        </mxCell>
        <mxCell id="Nktsm34Fh5tqj6Ti2t0z-82" value="03.12" style="text;html=1;align=center;verticalAlign=middle;resizable=0;points=[];autosize=1;strokeColor=none;fillColor=none;fontSize=23;fontStyle=1" parent="Nktsm34Fh5tqj6Ti2t0z-80" vertex="1">
          <mxGeometry x="-2.0238095238095237" y="2" width="80" height="40" as="geometry" />
        </mxCell>
        <mxCell id="Nktsm34Fh5tqj6Ti2t0z-83" value="06.24" style="text;html=1;align=center;verticalAlign=middle;resizable=0;points=[];autosize=1;strokeColor=none;fillColor=none;fontSize=23;fontStyle=1" parent="Nktsm34Fh5tqj6Ti2t0z-80" vertex="1">
          <mxGeometry x="394.6404888551165" width="80" height="40" as="geometry" />
        </mxCell>
        <mxCell id="Nktsm34Fh5tqj6Ti2t0z-93" value="" style="group" parent="1" vertex="1" connectable="0">
          <mxGeometry x="-120" y="493" width="1967.5" height="103" as="geometry" />
        </mxCell>
        <mxCell id="Nktsm34Fh5tqj6Ti2t0z-3" value="" style="rounded=0;whiteSpace=wrap;html=1;fillColor=#6a00ff;strokeColor=#3700CC;fontColor=#ffffff;" parent="Nktsm34Fh5tqj6Ti2t0z-93" vertex="1">
          <mxGeometry x="147" y="8" width="11" height="60" as="geometry" />
        </mxCell>
        <mxCell id="Nktsm34Fh5tqj6Ti2t0z-5" value="1月" style="text;html=1;align=center;verticalAlign=middle;resizable=0;points=[];autosize=1;strokeColor=none;fillColor=none;fontSize=16;fontStyle=1" parent="Nktsm34Fh5tqj6Ti2t0z-93" vertex="1">
          <mxGeometry x="131" y="72" width="43" height="31" as="geometry" />
        </mxCell>
        <mxCell id="Nktsm34Fh5tqj6Ti2t0z-6" value="" style="rounded=0;whiteSpace=wrap;html=1;fillColor=#6a00ff;strokeColor=#3700CC;fontColor=#ffffff;" parent="Nktsm34Fh5tqj6Ti2t0z-93" vertex="1">
          <mxGeometry x="304" y="8" width="11" height="60" as="geometry" />
        </mxCell>
        <mxCell id="Nktsm34Fh5tqj6Ti2t0z-7" value="2月" style="text;html=1;align=center;verticalAlign=middle;resizable=0;points=[];autosize=1;strokeColor=none;fillColor=none;fontSize=16;fontStyle=1" parent="Nktsm34Fh5tqj6Ti2t0z-93" vertex="1">
          <mxGeometry x="288" y="72" width="43" height="31" as="geometry" />
        </mxCell>
        <mxCell id="Nktsm34Fh5tqj6Ti2t0z-10" value="" style="rounded=0;whiteSpace=wrap;html=1;fillColor=#6a00ff;strokeColor=#3700CC;fontColor=#ffffff;" parent="Nktsm34Fh5tqj6Ti2t0z-93" vertex="1">
          <mxGeometry x="451" y="8" width="11" height="60" as="geometry" />
        </mxCell>
        <mxCell id="Nktsm34Fh5tqj6Ti2t0z-11" value="3月" style="text;html=1;align=center;verticalAlign=middle;resizable=0;points=[];autosize=1;strokeColor=none;fillColor=none;fontSize=16;fontStyle=1" parent="Nktsm34Fh5tqj6Ti2t0z-93" vertex="1">
          <mxGeometry x="435" y="72" width="43" height="31" as="geometry" />
        </mxCell>
        <mxCell id="Nktsm34Fh5tqj6Ti2t0z-12" value="" style="rounded=0;whiteSpace=wrap;html=1;fillColor=#6a00ff;strokeColor=#3700CC;fontColor=#ffffff;" parent="Nktsm34Fh5tqj6Ti2t0z-93" vertex="1">
          <mxGeometry x="594" y="6" width="11" height="60" as="geometry" />
        </mxCell>
        <mxCell id="Nktsm34Fh5tqj6Ti2t0z-13" value="4月" style="text;html=1;align=center;verticalAlign=middle;resizable=0;points=[];autosize=1;strokeColor=none;fillColor=none;fontSize=16;fontStyle=1" parent="Nktsm34Fh5tqj6Ti2t0z-93" vertex="1">
          <mxGeometry x="578" y="70" width="43" height="31" as="geometry" />
        </mxCell>
        <mxCell id="Nktsm34Fh5tqj6Ti2t0z-14" value="" style="rounded=0;whiteSpace=wrap;html=1;fillColor=#6a00ff;strokeColor=#3700CC;fontColor=#ffffff;" parent="Nktsm34Fh5tqj6Ti2t0z-93" vertex="1">
          <mxGeometry x="751" y="6" width="11" height="60" as="geometry" />
        </mxCell>
        <mxCell id="Nktsm34Fh5tqj6Ti2t0z-15" value="5月" style="text;html=1;align=center;verticalAlign=middle;resizable=0;points=[];autosize=1;strokeColor=none;fillColor=none;fontSize=16;fontStyle=1" parent="Nktsm34Fh5tqj6Ti2t0z-93" vertex="1">
          <mxGeometry x="735" y="70" width="43" height="31" as="geometry" />
        </mxCell>
        <mxCell id="Nktsm34Fh5tqj6Ti2t0z-16" value="" style="rounded=0;whiteSpace=wrap;html=1;fillColor=#6a00ff;strokeColor=#3700CC;fontColor=#ffffff;" parent="Nktsm34Fh5tqj6Ti2t0z-93" vertex="1">
          <mxGeometry x="898" y="6" width="11" height="60" as="geometry" />
        </mxCell>
        <mxCell id="Nktsm34Fh5tqj6Ti2t0z-17" value="6月" style="text;html=1;align=center;verticalAlign=middle;resizable=0;points=[];autosize=1;strokeColor=none;fillColor=none;fontSize=16;fontStyle=1" parent="Nktsm34Fh5tqj6Ti2t0z-93" vertex="1">
          <mxGeometry x="882" y="70" width="43" height="31" as="geometry" />
        </mxCell>
        <mxCell id="Nktsm34Fh5tqj6Ti2t0z-18" value="" style="rounded=0;whiteSpace=wrap;html=1;fillColor=#6a00ff;strokeColor=#3700CC;fontColor=#ffffff;" parent="Nktsm34Fh5tqj6Ti2t0z-93" vertex="1">
          <mxGeometry x="1053" y="2" width="11" height="60" as="geometry" />
        </mxCell>
        <mxCell id="Nktsm34Fh5tqj6Ti2t0z-19" value="7月" style="text;html=1;align=center;verticalAlign=middle;resizable=0;points=[];autosize=1;strokeColor=none;fillColor=none;fontSize=16;fontStyle=1" parent="Nktsm34Fh5tqj6Ti2t0z-93" vertex="1">
          <mxGeometry x="1037" y="66" width="43" height="31" as="geometry" />
        </mxCell>
        <mxCell id="Nktsm34Fh5tqj6Ti2t0z-20" value="" style="rounded=0;whiteSpace=wrap;html=1;fillColor=#6a00ff;strokeColor=#3700CC;fontColor=#ffffff;" parent="Nktsm34Fh5tqj6Ti2t0z-93" vertex="1">
          <mxGeometry x="1210" y="2" width="11" height="60" as="geometry" />
        </mxCell>
        <mxCell id="Nktsm34Fh5tqj6Ti2t0z-21" value="8月" style="text;html=1;align=center;verticalAlign=middle;resizable=0;points=[];autosize=1;strokeColor=none;fillColor=none;fontSize=16;fontStyle=1" parent="Nktsm34Fh5tqj6Ti2t0z-93" vertex="1">
          <mxGeometry x="1194" y="66" width="43" height="31" as="geometry" />
        </mxCell>
        <mxCell id="Nktsm34Fh5tqj6Ti2t0z-22" value="" style="rounded=0;whiteSpace=wrap;html=1;fillColor=#6a00ff;strokeColor=#3700CC;fontColor=#ffffff;" parent="Nktsm34Fh5tqj6Ti2t0z-93" vertex="1">
          <mxGeometry x="1357" y="2" width="11" height="60" as="geometry" />
        </mxCell>
        <mxCell id="Nktsm34Fh5tqj6Ti2t0z-23" value="9月" style="text;html=1;align=center;verticalAlign=middle;resizable=0;points=[];autosize=1;strokeColor=none;fillColor=none;fontSize=16;fontStyle=1" parent="Nktsm34Fh5tqj6Ti2t0z-93" vertex="1">
          <mxGeometry x="1341" y="66" width="43" height="31" as="geometry" />
        </mxCell>
        <mxCell id="Nktsm34Fh5tqj6Ti2t0z-24" value="" style="rounded=0;whiteSpace=wrap;html=1;fillColor=#6a00ff;strokeColor=#3700CC;fontColor=#ffffff;" parent="Nktsm34Fh5tqj6Ti2t0z-93" vertex="1">
          <mxGeometry x="1500" width="11" height="60" as="geometry" />
        </mxCell>
        <mxCell id="Nktsm34Fh5tqj6Ti2t0z-25" value="10月" style="text;html=1;align=center;verticalAlign=middle;resizable=0;points=[];autosize=1;strokeColor=none;fillColor=none;fontSize=16;fontStyle=1" parent="Nktsm34Fh5tqj6Ti2t0z-93" vertex="1">
          <mxGeometry x="1480" y="64" width="52" height="31" as="geometry" />
        </mxCell>
        <mxCell id="Nktsm34Fh5tqj6Ti2t0z-26" value="" style="rounded=0;whiteSpace=wrap;html=1;fillColor=#6a00ff;strokeColor=#3700CC;fontColor=#ffffff;" parent="Nktsm34Fh5tqj6Ti2t0z-93" vertex="1">
          <mxGeometry x="1657" width="11" height="60" as="geometry" />
        </mxCell>
        <mxCell id="Nktsm34Fh5tqj6Ti2t0z-27" value="11月" style="text;html=1;align=center;verticalAlign=middle;resizable=0;points=[];autosize=1;strokeColor=none;fillColor=none;fontSize=16;fontStyle=1" parent="Nktsm34Fh5tqj6Ti2t0z-93" vertex="1">
          <mxGeometry x="1637" y="64" width="51" height="31" as="geometry" />
        </mxCell>
        <mxCell id="Nktsm34Fh5tqj6Ti2t0z-28" value="" style="rounded=0;whiteSpace=wrap;html=1;fillColor=#6a00ff;strokeColor=#3700CC;fontColor=#ffffff;" parent="Nktsm34Fh5tqj6Ti2t0z-93" vertex="1">
          <mxGeometry x="1804" width="11" height="60" as="geometry" />
        </mxCell>
        <mxCell id="Nktsm34Fh5tqj6Ti2t0z-29" value="12月" style="text;html=1;align=center;verticalAlign=middle;resizable=0;points=[];autosize=1;strokeColor=none;fillColor=none;fontSize=16;fontStyle=1" parent="Nktsm34Fh5tqj6Ti2t0z-93" vertex="1">
          <mxGeometry x="1784" y="64" width="52" height="31" as="geometry" />
        </mxCell>
        <mxCell id="Nktsm34Fh5tqj6Ti2t0z-41" value="01月" style="text;html=1;align=center;verticalAlign=middle;resizable=0;points=[];autosize=1;strokeColor=none;fillColor=none;fontSize=16;fontStyle=1" parent="Nktsm34Fh5tqj6Ti2t0z-93" vertex="1">
          <mxGeometry x="1915.5" y="68" width="52" height="31" as="geometry" />
        </mxCell>
        <mxCell id="Nktsm34Fh5tqj6Ti2t0z-42" value="" style="endArrow=none;html=1;rounded=0;" parent="Nktsm34Fh5tqj6Ti2t0z-93" target="Nktsm34Fh5tqj6Ti2t0z-40" edge="1">
          <mxGeometry width="50" height="50" relative="1" as="geometry">
            <mxPoint x="-200" y="43" as="sourcePoint" />
            <mxPoint x="1959" y="36" as="targetPoint" />
          </mxGeometry>
        </mxCell>
        <mxCell id="Nktsm34Fh5tqj6Ti2t0z-40" value="" style="rounded=0;whiteSpace=wrap;html=1;fillColor=#d80073;strokeColor=#A50040;fontColor=#ffffff;" parent="Nktsm34Fh5tqj6Ti2t0z-93" vertex="1">
          <mxGeometry x="1936" width="11" height="60" as="geometry" />
        </mxCell>
        <mxCell id="Nktsm34Fh5tqj6Ti2t0z-149" value="" style="rounded=0;whiteSpace=wrap;html=1;fillColor=#1ba1e2;strokeColor=#006EAF;fontColor=#ffffff;" parent="Nktsm34Fh5tqj6Ti2t0z-93" vertex="1">
          <mxGeometry x="-6" y="12" width="11" height="60" as="geometry" />
        </mxCell>
        <mxCell id="Nktsm34Fh5tqj6Ti2t0z-150" value="12月" style="text;html=1;align=center;verticalAlign=middle;resizable=0;points=[];autosize=1;strokeColor=none;fillColor=none;fontSize=16;fontStyle=1" parent="Nktsm34Fh5tqj6Ti2t0z-93" vertex="1">
          <mxGeometry x="-30" y="73" width="60" height="30" as="geometry" />
        </mxCell>
        <mxCell id="Nktsm34Fh5tqj6Ti2t0z-122" value="CCF A" style="text;html=1;align=center;verticalAlign=middle;resizable=0;points=[];autosize=1;strokeColor=none;fillColor=none;fontSize=24;fontStyle=1" parent="1" vertex="1">
          <mxGeometry x="-270" y="320" width="90" height="40" as="geometry" />
        </mxCell>
        <mxCell id="5Cs6iRBIuVZG9UA_UnIa-3" value="12.05" style="text;html=1;align=center;verticalAlign=middle;resizable=0;points=[];autosize=1;strokeColor=none;fillColor=none;fontSize=23;fontStyle=1" parent="1" vertex="1">
          <mxGeometry x="-199.9988888888888" y="-111.99523809523805" width="80" height="40" as="geometry" />
        </mxCell>
        <mxCell id="5Cs6iRBIuVZG9UA_UnIa-1" value="CoNext June 24 (8P)&amp;nbsp;" style="rounded=1;whiteSpace=wrap;html=1;fontStyle=1;fontSize=24;" parent="1" vertex="1">
          <mxGeometry x="870" y="-114" width="430" height="30.47" as="geometry" />
        </mxCell>
      </root>
    </mxGraphModel>
  </diagram>
</mxfile>
